<?xml version="1.0" encoding="UTF-8"?>
<svg xmlns="http://www.w3.org/2000/svg" xmlns:xlink="http://www.w3.org/1999/xlink" width="64pt" height="63pt" viewBox="0 0 64 63" version="1.1">
<g id="surface1">
<path style=" stroke:none;fill-rule:nonzero;fill:rgb(0%,0%,0%);fill-opacity:1;" d="M 18.84375 14.1875 C 20.4375 14.1875 21.730469 12.914062 21.730469 11.34375 C 21.730469 9.773438 20.4375 8.5 18.84375 8.5 C 17.246094 8.5 15.949219 9.773438 15.949219 11.34375 C 15.949219 12.914062 17.246094 14.1875 18.84375 14.1875 Z M 18.84375 10.09375 C 19.542969 10.09375 20.113281 10.652344 20.113281 11.34375 C 20.113281 12.035156 19.542969 12.59375 18.84375 12.59375 C 18.140625 12.59375 17.570312 12.035156 17.570312 11.34375 C 17.570312 10.652344 18.140625 10.09375 18.84375 10.09375 Z M 18.84375 10.09375 "/>
<path style=" stroke:none;fill-rule:nonzero;fill:rgb(0%,0%,0%);fill-opacity:1;" d="M 18.839844 21.941406 C 17.085938 21.941406 15.710938 22.972656 15.710938 24.285156 L 15.710938 40.617188 C 15.710938 41.933594 17.085938 42.960938 18.839844 42.960938 C 20.597656 42.960938 21.972656 41.933594 21.972656 40.617188 L 21.972656 24.285156 C 21.972656 22.972656 20.597656 21.941406 18.839844 21.941406 Z M 20.351562 40.617188 C 20.351562 40.917969 19.75 41.367188 18.839844 41.367188 C 17.933594 41.367188 17.332031 40.917969 17.332031 40.617188 L 17.332031 24.285156 C 17.332031 23.988281 17.933594 23.535156 18.839844 23.535156 C 19.75 23.535156 20.351562 23.988281 20.351562 24.285156 Z M 20.351562 40.617188 "/>
<path style=" stroke:none;fill-rule:nonzero;fill:rgb(0%,0%,0%);fill-opacity:1;" d="M 49.910156 0 L 14.03125 0 C 11.269531 0 9.019531 2.214844 9.019531 4.9375 L 9.019531 53.550781 C 9.019531 56.273438 11.269531 58.488281 14.03125 58.488281 L 14.648438 58.488281 C 14.417969 58.914062 14.285156 59.402344 14.285156 59.917969 C 14.285156 61.585938 15.664062 62.945312 17.359375 62.945312 C 19.050781 62.945312 20.429688 61.585938 20.429688 59.917969 C 20.429688 59.402344 20.296875 58.914062 20.066406 58.488281 L 43.878906 58.488281 C 43.644531 58.914062 43.511719 59.402344 43.511719 59.917969 C 43.511719 61.585938 44.890625 62.945312 46.585938 62.945312 C 48.28125 62.945312 49.65625 61.585938 49.65625 59.917969 C 49.65625 59.402344 49.527344 58.914062 49.292969 58.488281 L 49.910156 58.488281 C 52.675781 58.488281 54.925781 56.273438 54.925781 53.550781 L 54.925781 4.9375 C 54.925781 2.214844 52.675781 0 49.910156 0 Z M 14.03125 1.59375 L 49.910156 1.59375 C 51.78125 1.59375 53.304688 3.09375 53.304688 4.9375 L 53.304688 18.199219 L 10.636719 18.199219 L 10.636719 4.9375 C 10.636719 3.09375 12.160156 1.59375 14.03125 1.59375 Z M 18.8125 59.917969 C 18.8125 60.707031 18.160156 61.347656 17.359375 61.347656 C 16.554688 61.347656 15.902344 60.707031 15.902344 59.917969 C 15.902344 59.128906 16.554688 58.488281 17.359375 58.488281 C 18.160156 58.488281 18.8125 59.128906 18.8125 59.917969 Z M 48.039062 59.917969 C 48.039062 60.707031 47.386719 61.347656 46.585938 61.347656 C 45.785156 61.347656 45.132812 60.707031 45.132812 59.917969 C 45.132812 59.128906 45.785156 58.488281 46.585938 58.488281 C 47.386719 58.488281 48.039062 59.128906 48.039062 59.917969 Z M 49.910156 56.890625 L 14.03125 56.890625 C 12.160156 56.890625 10.636719 55.394531 10.636719 53.550781 L 10.636719 19.792969 L 53.304688 19.792969 L 53.304688 53.550781 C 53.304688 55.394531 51.78125 56.890625 49.910156 56.890625 Z M 49.910156 56.890625 "/>
</g>
</svg>
