<?xml version="1.0" encoding="UTF-8"?>
<svg xmlns="http://www.w3.org/2000/svg" xmlns:xlink="http://www.w3.org/1999/xlink" width="64pt" height="64pt" viewBox="0 0 64 64" version="1.1">
<g id="surface1">
<path style=" stroke:none;fill-rule:nonzero;fill:rgb(0%,0%,0%);fill-opacity:1;" d="M 61.539062 10.636719 L 52.746094 10.636719 C 51.390625 10.636719 50.285156 11.742188 50.285156 13.097656 L 50.285156 52.660156 C 50.285156 54.015625 51.390625 55.121094 52.746094 55.121094 L 61.539062 55.121094 C 62.894531 55.121094 64 54.015625 64 52.660156 L 64 13.097656 C 64 11.742188 62.894531 10.636719 61.539062 10.636719 Z M 57.292969 29.273438 C 55.320312 29.273438 53.71875 27.675781 53.71875 25.699219 C 53.71875 23.726562 55.320312 22.125 57.292969 22.125 C 59.269531 22.125 60.871094 23.726562 60.871094 25.699219 C 60.871094 27.675781 59.269531 29.273438 57.292969 29.273438 Z M 57.292969 29.273438 "/>
<path style=" stroke:none;fill-rule:nonzero;fill:rgb(0%,0%,0%);fill-opacity:1;" d="M 40.441406 8.878906 L 5.273438 8.878906 C 2.367188 8.878906 0 11.246094 0 14.152344 L 0 40.351562 C 0 43.261719 2.367188 45.625 5.273438 45.625 L 19.164062 45.625 L 19.164062 49.453125 C 19.164062 49.570312 19.082031 49.671875 19.015625 49.671875 L 9.203125 49.671875 C 8.105469 49.671875 7.207031 50.519531 7.207031 51.5625 L 7.207031 53.1875 C 7.207031 54.234375 8.121094 55.121094 9.203125 55.121094 L 36.738281 55.121094 C 37.808594 55.121094 38.679688 54.253906 38.679688 53.1875 L 38.679688 51.5625 C 38.679688 50.5 37.828125 49.671875 36.738281 49.671875 L 26.929688 49.671875 C 26.835938 49.671875 26.726562 49.550781 26.726562 49.453125 L 26.726562 45.625 L 40.441406 45.625 C 43.347656 45.625 45.714844 43.261719 45.714844 40.351562 L 45.714844 14.152344 C 45.714844 11.246094 43.347656 8.878906 40.441406 8.878906 Z M 40.441406 14.152344 L 40.441406 37.539062 L 5.273438 37.539062 L 5.273438 14.152344 Z M 40.441406 14.152344 "/>
</g>
</svg>
