<?xml version="1.0" encoding="UTF-8"?>
<svg xmlns="http://www.w3.org/2000/svg" xmlns:xlink="http://www.w3.org/1999/xlink" width="64pt" height="64pt" viewBox="0 0 64 64" version="1.1">
<g id="surface1">
<path style=" stroke:none;fill-rule:nonzero;fill:rgb(0%,0%,0%);fill-opacity:1;" d="M 57.824219 13.9375 L 43.863281 13.9375 L 40.9375 8.019531 C 40.578125 7.296875 39.839844 6.835938 39.027344 6.835938 L 28.484375 6.835938 C 27.675781 6.835938 26.9375 7.296875 26.578125 8.019531 L 23.648438 13.9375 L 6.175781 13.9375 C 2.769531 13.9375 0 16.707031 0 20.113281 L 0 50.988281 C 0 54.394531 2.769531 57.164062 6.175781 57.164062 L 57.824219 57.164062 C 61.230469 57.164062 64 54.394531 64 50.988281 L 64 20.113281 C 64 16.707031 61.230469 13.9375 57.824219 13.9375 Z M 29.808594 11.097656 L 37.707031 11.097656 L 39.113281 13.9375 L 28.402344 13.9375 Z M 57.824219 18.195312 C 58.878906 18.195312 59.742188 19.054688 59.742188 20.113281 L 59.742188 24.476562 L 51.902344 24.476562 C 48.660156 21.628906 44.414062 19.898438 39.773438 19.898438 C 35.132812 19.898438 30.890625 21.628906 27.648438 24.476562 L 4.257812 24.476562 L 4.257812 20.113281 C 4.257812 19.054688 5.121094 18.195312 6.175781 18.195312 Z M 39.773438 52.589844 C 31.964844 52.589844 25.609375 46.214844 25.609375 38.375 C 25.609375 30.535156 31.964844 24.15625 39.773438 24.15625 C 47.582031 24.15625 53.9375 30.535156 53.9375 38.375 C 53.9375 46.214844 47.582031 52.589844 39.773438 52.589844 Z M 4.257812 50.988281 L 4.257812 28.738281 L 24.0625 28.738281 C 22.34375 31.542969 21.351562 34.84375 21.351562 38.375 C 21.351562 44.261719 24.113281 49.519531 28.40625 52.902344 L 6.175781 52.902344 C 5.121094 52.902344 4.257812 52.042969 4.257812 50.988281 Z M 57.824219 52.902344 L 51.140625 52.902344 C 55.433594 49.519531 58.195312 44.261719 58.195312 38.375 C 58.195312 34.84375 57.203125 31.546875 55.484375 28.738281 L 59.742188 28.738281 L 59.742188 50.988281 C 59.742188 52.042969 58.878906 52.902344 57.824219 52.902344 Z M 57.824219 52.902344 "/>
<path style=" stroke:none;fill-rule:nonzero;fill:rgb(0%,0%,0%);fill-opacity:1;" d="M 39.773438 27.578125 C 33.839844 27.578125 29.007812 32.421875 29.007812 38.375 C 29.007812 44.324219 33.839844 49.167969 39.773438 49.167969 C 45.710938 49.167969 50.539062 44.324219 50.539062 38.375 C 50.539062 32.421875 45.710938 27.578125 39.773438 27.578125 Z M 39.773438 44.910156 C 36.1875 44.910156 33.269531 41.976562 33.269531 38.375 C 33.269531 34.769531 36.1875 31.839844 39.773438 31.839844 C 43.359375 31.839844 46.277344 34.769531 46.277344 38.375 C 46.277344 41.976562 43.359375 44.910156 39.773438 44.910156 Z M 39.773438 44.910156 "/>
</g>
</svg>
