<?xml version="1.0" encoding="UTF-8"?>
<svg xmlns="http://www.w3.org/2000/svg" xmlns:xlink="http://www.w3.org/1999/xlink" width="64pt" height="64pt" viewBox="0 0 64 64" version="1.1">
<g id="surface1">
<path style=" stroke:none;fill-rule:nonzero;fill:rgb(0%,0%,0%);fill-opacity:1;" d="M 45.371094 4.265625 L 38.398438 4.265625 L 38.398438 0 L 25.601562 0 L 25.601562 4.265625 L 18.628906 4.265625 C 16.589844 4.265625 14.933594 5.925781 14.933594 7.960938 L 14.933594 60.304688 C 14.933594 62.34375 16.589844 64 18.628906 64 L 45.371094 64 C 47.410156 64 49.066406 62.34375 49.066406 60.304688 L 49.066406 7.960938 C 49.066406 5.925781 47.410156 4.265625 45.371094 4.265625 Z M 46.933594 60.304688 C 46.933594 61.167969 46.234375 61.867188 45.371094 61.867188 L 18.628906 61.867188 C 17.765625 61.867188 17.066406 61.167969 17.066406 60.304688 L 17.066406 7.960938 C 17.066406 7.101562 17.765625 6.398438 18.628906 6.398438 L 45.371094 6.398438 C 46.234375 6.398438 46.933594 7.101562 46.933594 7.960938 Z M 46.933594 60.304688 "/>
<path style=" stroke:none;fill-rule:nonzero;fill:rgb(0%,0%,0%);fill-opacity:1;" d="M 39.464844 30.933594 L 36.265625 30.933594 L 36.265625 18.25 C 36.28125 17.972656 36.191406 17.699219 36.015625 17.480469 C 35.609375 16.980469 34.667969 16.988281 34.261719 17.484375 C 34.234375 17.519531 34.210938 17.554688 34.1875 17.59375 L 23.625 34.640625 C 23.421875 34.96875 23.414062 35.382812 23.601562 35.71875 C 23.789062 36.058594 24.144531 36.265625 24.535156 36.265625 L 28.800781 36.265625 L 28.800781 50.058594 L 28.804688 50.058594 C 28.804688 50.308594 28.886719 50.570312 29.03125 50.757812 C 29.234375 51.023438 29.597656 51.199219 29.929688 51.199219 C 30.253906 51.199219 30.605469 51.03125 30.808594 50.777344 C 30.851562 50.722656 30.886719 50.664062 30.917969 50.605469 L 40.410156 32.496094 C 40.585938 32.164062 40.574219 31.765625 40.378906 31.449219 C 40.1875 31.128906 39.839844 30.933594 39.464844 30.933594 Z M 39.464844 30.933594 "/>
</g>
</svg>
