<?xml version="1.0" encoding="UTF-8"?>
<svg xmlns="http://www.w3.org/2000/svg" xmlns:xlink="http://www.w3.org/1999/xlink" width="44pt" height="44pt" viewBox="0 0 44 44" version="1.1">
<g id="surface1">
<path style=" stroke:none;fill-rule:nonzero;fill:rgb(90.196078%,91.372549%,92.941176%);fill-opacity:1;" d="M 41.871094 29.097656 L 40.550781 41.976562 C 40.496094 42.722656 39.875 43.289062 39.136719 43.289062 L 28.992188 43.289062 C 28.253906 43.289062 27.636719 42.722656 27.578125 41.976562 L 26.257812 29.097656 Z M 41.871094 29.097656 "/>
<path style=" stroke:none;fill-rule:nonzero;fill:rgb(90.196078%,91.372549%,92.941176%);fill-opacity:1;" d="M 43.289062 26.96875 L 43.289062 28.386719 C 43.289062 28.777344 42.972656 29.097656 42.582031 29.097656 L 25.546875 29.097656 C 25.15625 29.097656 24.839844 28.777344 24.839844 28.386719 L 24.839844 26.96875 C 24.839844 26.578125 25.15625 26.257812 25.546875 26.257812 L 42.582031 26.257812 C 42.972656 26.257812 43.289062 26.578125 43.289062 26.96875 Z M 43.289062 26.96875 "/>
<path style=" stroke:none;fill-rule:nonzero;fill:rgb(51.372549%,56.078431%,60.784314%);fill-opacity:1;" d="M 36.902344 23.417969 L 37.613281 26.257812 L 30.515625 26.257812 L 31.226562 23.417969 Z M 36.902344 23.417969 "/>
<path style=" stroke:none;fill-rule:nonzero;fill:rgb(70.588235%,86.666667%,49.803922%);fill-opacity:1;" d="M 4.96875 19.160156 L 4.96875 19.871094 C 4.96875 20.261719 4.648438 20.582031 4.257812 20.582031 L 1.417969 20.582031 C 1.027344 20.582031 0.710938 20.261719 0.710938 19.871094 L 0.710938 8.515625 C 0.710938 8.125 1.027344 7.804688 1.417969 7.804688 L 4.257812 7.804688 C 4.648438 7.804688 4.96875 8.125 4.96875 8.515625 Z M 4.96875 19.160156 "/>
<path style=" stroke:none;fill-rule:nonzero;fill:rgb(51.372549%,56.078431%,60.784314%);fill-opacity:1;" d="M 22.710938 19.160156 C 22.710938 19.941406 23.347656 20.582031 24.128906 20.582031 L 26.96875 20.582031 L 26.96875 22 C 26.96875 22.78125 26.328125 23.417969 25.546875 23.417969 L 15.613281 23.417969 C 14.832031 23.417969 14.195312 22.78125 14.195312 22 L 14.195312 18.453125 L 22.710938 18.453125 L 22.878906 18.488281 C 22.773438 18.6875 22.710938 18.921875 22.710938 19.160156 Z M 22.710938 19.160156 "/>
<path style=" stroke:none;fill-rule:nonzero;fill:rgb(51.372549%,56.078431%,60.784314%);fill-opacity:1;" d="M 26.96875 2.128906 L 26.96875 3.546875 L 14.195312 3.546875 L 14.195312 2.128906 C 14.195312 1.347656 14.832031 0.710938 15.613281 0.710938 L 25.546875 0.710938 C 26.328125 0.710938 26.96875 1.347656 26.96875 2.128906 Z M 26.96875 2.128906 "/>
<path style=" stroke:none;fill-rule:nonzero;fill:rgb(41.176471%,83.921569%,95.686275%);fill-opacity:1;" d="M 26.96875 18.453125 L 14.195312 18.453125 L 14.195312 3.546875 L 26.96875 3.546875 Z M 26.96875 18.453125 "/>
<path style=" stroke:none;fill-rule:nonzero;fill:rgb(94.117647%,81.568627%,70.588235%);fill-opacity:1;" d="M 14.195312 20.582031 L 10.644531 20.582031 L 7.097656 19.160156 L 4.96875 19.160156 L 4.96875 9.226562 L 8.515625 9.226562 L 12.773438 6.386719 L 20.582031 6.386719 C 21.363281 6.386719 22 7.027344 22 7.804688 C 22 8.195312 21.84375 8.550781 21.582031 8.808594 C 21.324219 9.070312 20.972656 9.226562 20.582031 9.226562 L 15.613281 9.226562 L 14.195312 10.644531 Z M 14.195312 20.582031 "/>
<path style=" stroke:none;fill-rule:nonzero;fill:rgb(94.117647%,81.568627%,70.588235%);fill-opacity:1;" d="M 27.675781 9.226562 C 28.457031 9.226562 29.097656 9.863281 29.097656 10.644531 C 29.097656 11.035156 28.941406 11.390625 28.679688 11.644531 C 28.421875 11.910156 28.066406 12.066406 27.675781 12.066406 L 24.128906 12.066406 C 23.347656 12.066406 22.710938 11.425781 22.710938 10.644531 C 22.710938 10.253906 22.867188 9.898438 23.128906 9.644531 C 23.382812 9.382812 23.738281 9.226562 24.128906 9.226562 Z M 27.675781 9.226562 "/>
<path style=" stroke:none;fill-rule:nonzero;fill:rgb(94.117647%,81.568627%,70.588235%);fill-opacity:1;" d="M 27.675781 12.066406 C 28.457031 12.066406 29.097656 12.703125 29.097656 13.484375 C 29.097656 13.875 28.941406 14.230469 28.679688 14.484375 C 28.421875 14.746094 28.066406 14.902344 27.675781 14.902344 L 24.128906 14.902344 C 23.347656 14.902344 22.710938 14.265625 22.710938 13.484375 C 22.710938 13.09375 22.867188 12.738281 23.128906 12.484375 C 23.382812 12.222656 23.738281 12.066406 24.128906 12.066406 Z M 27.675781 12.066406 "/>
<path style=" stroke:none;fill-rule:nonzero;fill:rgb(94.117647%,81.568627%,70.588235%);fill-opacity:1;" d="M 27.675781 17.742188 C 28.457031 17.742188 29.097656 18.378906 29.097656 19.160156 C 29.097656 19.550781 28.941406 19.90625 28.679688 20.160156 C 28.421875 20.425781 28.066406 20.582031 27.675781 20.582031 L 24.128906 20.582031 C 23.347656 20.582031 22.710938 19.941406 22.710938 19.160156 C 22.710938 18.921875 22.773438 18.6875 22.878906 18.488281 C 22.945312 18.367188 23.027344 18.253906 23.128906 18.160156 C 23.382812 17.898438 23.738281 17.742188 24.128906 17.742188 Z M 27.675781 17.742188 "/>
<path style=" stroke:none;fill-rule:nonzero;fill:rgb(94.117647%,81.568627%,70.588235%);fill-opacity:1;" d="M 27.675781 14.902344 C 28.457031 14.902344 29.097656 15.542969 29.097656 16.324219 C 29.097656 16.710938 28.941406 17.066406 28.679688 17.324219 C 28.421875 17.585938 28.066406 17.742188 27.675781 17.742188 L 24.128906 17.742188 C 23.347656 17.742188 22.710938 17.101562 22.710938 16.324219 C 22.710938 15.933594 22.867188 15.578125 23.128906 15.320312 C 23.382812 15.058594 23.738281 14.902344 24.128906 14.902344 Z M 27.675781 14.902344 "/>
<path style=" stroke:none;fill-rule:nonzero;fill:rgb(0%,0%,0%);fill-opacity:1;" d="M 42.582031 25.546875 L 38.167969 25.546875 L 37.457031 22.710938 L 30.671875 22.710938 L 29.960938 25.546875 L 25.546875 25.546875 C 24.765625 25.546875 24.128906 26.183594 24.128906 26.96875 L 24.128906 28.386719 C 24.128906 29.167969 24.765625 29.804688 25.546875 29.804688 L 25.617188 29.804688 L 26.867188 42.035156 C 26.953125 43.136719 27.886719 44 28.992188 44 L 39.136719 44 C 40.242188 44 41.175781 43.136719 41.257812 42.050781 L 42.511719 29.804688 L 42.582031 29.804688 C 43.363281 29.804688 44 29.167969 44 28.386719 L 44 26.96875 C 44 26.183594 43.363281 25.546875 42.582031 25.546875 Z M 31.78125 24.128906 L 36.347656 24.128906 L 36.703125 25.546875 L 31.425781 25.546875 Z M 39.84375 41.925781 C 39.816406 42.292969 39.503906 42.582031 39.136719 42.582031 L 28.992188 42.582031 C 28.621094 42.582031 28.3125 42.292969 28.28125 41.90625 L 27.042969 29.804688 L 41.085938 29.804688 Z M 25.546875 28.386719 L 25.546875 26.96875 L 42.582031 26.96875 L 42.582031 28.386719 Z M 25.546875 28.386719 "/>
<path style=" stroke:none;fill-rule:nonzero;fill:rgb(0%,0%,0%);fill-opacity:1;" d="M 30.515625 31.933594 L 31.933594 31.933594 L 31.933594 40.453125 L 30.515625 40.453125 Z M 30.515625 31.933594 "/>
<path style=" stroke:none;fill-rule:nonzero;fill:rgb(0%,0%,0%);fill-opacity:1;" d="M 33.355469 31.933594 L 34.773438 31.933594 L 34.773438 40.453125 L 33.355469 40.453125 Z M 33.355469 31.933594 "/>
<path style=" stroke:none;fill-rule:nonzero;fill:rgb(0%,0%,0%);fill-opacity:1;" d="M 36.195312 31.933594 L 37.613281 31.933594 L 37.613281 40.453125 L 36.195312 40.453125 Z M 36.195312 31.933594 "/>
<path style=" stroke:none;fill-rule:nonzero;fill:rgb(0%,0%,0%);fill-opacity:1;" d="M 27.675781 22 L 27.675781 21.289062 C 28.851562 21.289062 29.804688 20.335938 29.804688 19.160156 C 29.804688 18.613281 29.59375 18.121094 29.253906 17.742188 C 29.59375 17.363281 29.804688 16.871094 29.804688 16.324219 C 29.804688 15.777344 29.59375 15.28125 29.253906 14.902344 C 29.59375 14.527344 29.804688 14.03125 29.804688 13.484375 C 29.804688 12.9375 29.59375 12.441406 29.253906 12.066406 C 29.59375 11.6875 29.804688 11.191406 29.804688 10.644531 C 29.804688 9.472656 28.851562 8.515625 27.675781 8.515625 L 27.675781 2.128906 C 27.675781 0.957031 26.722656 0 25.546875 0 L 15.613281 0 C 14.4375 0 13.484375 0.957031 13.484375 2.128906 L 13.484375 5.675781 L 12.558594 5.675781 L 8.300781 8.515625 L 5.675781 8.515625 C 5.675781 7.734375 5.039062 7.097656 4.257812 7.097656 L 1.417969 7.097656 C 0.636719 7.097656 0 7.734375 0 8.515625 L 0 19.871094 C 0 20.652344 0.636719 21.289062 1.417969 21.289062 L 4.257812 21.289062 C 5.039062 21.289062 5.675781 20.652344 5.675781 19.871094 L 6.960938 19.871094 L 10.507812 21.289062 L 13.484375 21.289062 L 13.484375 22 C 13.484375 23.171875 14.4375 24.128906 15.613281 24.128906 L 25.546875 24.128906 C 26.722656 24.128906 27.675781 23.171875 27.675781 22 Z M 27.675781 19.871094 L 24.128906 19.871094 C 23.738281 19.871094 23.417969 19.554688 23.417969 19.160156 C 23.417969 18.769531 23.738281 18.453125 24.128906 18.453125 L 27.675781 18.453125 C 28.066406 18.453125 28.386719 18.769531 28.386719 19.160156 C 28.386719 19.554688 28.066406 19.871094 27.675781 19.871094 Z M 28.386719 13.484375 C 28.386719 13.875 28.066406 14.195312 27.675781 14.195312 L 24.128906 14.195312 C 23.738281 14.195312 23.417969 13.875 23.417969 13.484375 C 23.417969 13.09375 23.738281 12.773438 24.128906 12.773438 L 27.675781 12.773438 C 28.066406 12.773438 28.386719 13.09375 28.386719 13.484375 Z M 28.386719 16.324219 C 28.386719 16.714844 28.066406 17.03125 27.675781 17.03125 L 24.128906 17.03125 C 23.738281 17.03125 23.417969 16.714844 23.417969 16.324219 C 23.417969 15.929688 23.738281 15.613281 24.128906 15.613281 L 27.675781 15.613281 C 28.066406 15.613281 28.386719 15.929688 28.386719 16.324219 Z M 28.386719 10.644531 C 28.386719 11.035156 28.066406 11.355469 27.675781 11.355469 L 24.128906 11.355469 C 23.738281 11.355469 23.417969 11.035156 23.417969 10.644531 C 23.417969 10.253906 23.738281 9.933594 24.128906 9.933594 L 27.675781 9.933594 C 28.066406 9.933594 28.386719 10.253906 28.386719 10.644531 Z M 15.613281 1.417969 L 25.546875 1.417969 C 25.9375 1.417969 26.257812 1.738281 26.257812 2.128906 L 26.257812 2.839844 L 14.902344 2.839844 L 14.902344 2.128906 C 14.902344 1.738281 15.222656 1.417969 15.613281 1.417969 Z M 14.902344 4.257812 L 26.257812 4.257812 L 26.257812 8.515625 L 24.128906 8.515625 C 22.957031 8.515625 22 9.472656 22 10.644531 C 22 11.191406 22.214844 11.6875 22.554688 12.066406 C 22.210938 12.441406 22 12.9375 22 13.484375 C 22 14.03125 22.214844 14.527344 22.554688 14.902344 C 22.210938 15.28125 22 15.777344 22 16.324219 C 22 16.871094 22.214844 17.363281 22.554688 17.742188 L 14.902344 17.742188 L 14.902344 10.9375 L 15.90625 9.933594 L 20.582031 9.933594 C 21.753906 9.933594 22.710938 8.980469 22.710938 7.804688 C 22.710938 6.632812 21.753906 5.675781 20.582031 5.675781 L 14.902344 5.675781 Z M 1.417969 19.871094 L 1.417969 8.515625 L 4.257812 8.515625 L 4.257812 19.871094 Z M 10.78125 19.871094 L 7.234375 18.453125 L 5.675781 18.453125 L 5.675781 9.933594 L 8.730469 9.933594 L 12.988281 7.097656 L 20.582031 7.097656 C 20.972656 7.097656 21.289062 7.414062 21.289062 7.804688 C 21.289062 8.199219 20.972656 8.515625 20.582031 8.515625 L 15.320312 8.515625 L 10.144531 13.691406 L 11.148438 14.695312 L 13.484375 12.359375 L 13.484375 19.871094 Z M 14.902344 22 L 14.902344 19.160156 L 22 19.160156 C 22 20.335938 22.957031 21.289062 24.128906 21.289062 L 26.257812 21.289062 L 26.257812 22 C 26.257812 22.390625 25.9375 22.710938 25.546875 22.710938 L 15.613281 22.710938 C 15.222656 22.710938 14.902344 22.390625 14.902344 22 Z M 14.902344 22 "/>
<path style=" stroke:none;fill-rule:nonzero;fill:rgb(0%,0%,0%);fill-opacity:1;" d="M 33.8125 12.726562 L 35.210938 12.480469 L 35.457031 13.875 L 34.058594 14.121094 Z M 33.8125 12.726562 "/>
<path style=" stroke:none;fill-rule:nonzero;fill:rgb(0%,0%,0%);fill-opacity:1;" d="M 32.570312 10.03125 L 33.796875 9.320312 L 34.507812 10.550781 L 33.277344 11.261719 Z M 32.570312 10.03125 "/>
<path style=" stroke:none;fill-rule:nonzero;fill:rgb(0%,0%,0%);fill-opacity:1;" d="M 30.476562 7.921875 L 31.390625 6.835938 L 32.476562 7.746094 L 31.566406 8.835938 Z M 30.476562 7.921875 "/>
<path style=" stroke:none;fill-rule:nonzero;fill:rgb(0%,0%,0%);fill-opacity:1;" d="M 34.066406 15.613281 L 34.066406 18.15625 L 33.148438 17.238281 L 32.144531 18.242188 L 34.773438 20.875 L 37.40625 18.242188 L 36.402344 17.238281 L 35.484375 18.15625 L 35.484375 15.613281 Z M 34.066406 15.613281 "/>
</g>
</svg>
